<svg width="193" height="41" viewBox="0 0 193 41" fill="none" xmlns="http://www.w3.org/2000/svg">
<path d="M20.753 41C19.5825 41.007 18.414 40.9036 17.263 40.691C14.8112 40.2774 12.4593 39.4059 10.33 38.122C8.22563 36.7957 6.33391 35.1589 4.71899 33.267C2.8819 31.1607 1.58037 28.642 0.924987 25.925C0.294505 23.1876 0.20719 20.3531 0.667987 17.582C1.19248 14.2562 2.58743 11.1284 4.7113 8.51597C6.83516 5.90351 9.61234 3.89939 12.761 2.70701C14.9785 1.80441 17.3208 1.24596 19.707 1.051C20.218 1.014 20.732 0.995005 21.234 0.995005C23.813 0.985344 26.3662 1.5079 28.734 2.53C29.505 2.865 30.234 3.249 31.01 3.655L31.626 3.977C31.6842 4.00742 31.7353 4.04991 31.7759 4.10164C31.8164 4.15338 31.8454 4.21316 31.861 4.27701C31.8764 4.33828 31.8787 4.40214 31.8677 4.46437C31.8567 4.5266 31.8326 4.58578 31.797 4.63801C30.03 7.21701 30.041 10.104 30.05 12.896C30.05 13.1087 30.05 13.321 30.05 13.533L29.725 13.687L29.712 13.693L29.142 13.964H29.137L29.117 13.949C27.6636 12.1191 25.6808 10.7824 23.4393 10.1213C21.1979 9.46031 18.8071 9.50719 16.5933 10.2556C14.3795 11.004 12.4506 12.4174 11.0701 14.3029C9.6895 16.1884 8.92453 18.454 8.8796 20.7905C8.83466 23.1269 9.51196 25.4203 10.819 27.3575C12.126 29.2947 13.9991 30.7812 16.1825 31.6142C18.3659 32.4471 20.7532 32.5859 23.0184 32.0116C25.2836 31.4372 27.3163 30.1777 28.839 28.405C29.8507 27.2809 30.6173 25.9586 31.09 24.522C31.745 22.4561 31.9866 20.2813 31.801 18.122C31.701 16.216 31.761 14.27 31.815 12.389C31.829 11.889 31.844 11.375 31.856 10.866C31.8423 9.4524 32.1397 8.05309 32.7273 6.76732C33.3149 5.48154 34.1782 4.34081 35.256 3.42601C36.7022 2.15898 38.5303 1.41141 40.45 1.302C40.519 1.296 40.581 1.293 40.637 1.293C40.7146 1.28497 40.7929 1.2926 40.8675 1.31545C40.942 1.3383 41.0112 1.37589 41.071 1.426C41.2008 1.59998 41.2575 1.81781 41.229 2.03301C41.217 5.97901 41.169 9.99101 41.123 13.871V13.876C41.084 17.164 41.044 20.564 41.023 23.911C40.9027 25.3514 40.6537 26.7781 40.279 28.174C39.4391 30.6383 38.0466 32.8778 36.208 34.721C34.8339 36.0742 33.2722 37.2227 31.571 38.131C28.852 39.7267 25.8074 40.687 22.665 40.94C22.006 40.979 21.362 41 20.753 41Z" fill="#3A36DB"/>
<path d="M60.755 23.996H67.715C74.255 23.996 78.875 19.706 78.875 13.676C78.875 7.64597 74.255 3.38597 67.715 3.38597H60.755V23.996ZM63.095 21.866V5.51597H67.715C72.875 5.51597 76.505 8.90597 76.505 13.676C76.505 18.476 72.875 21.866 67.715 21.866H63.095ZM89.3666 8.12597C87.8666 8.12597 86.0066 8.51597 83.7866 9.62597L84.6866 11.456C86.0966 10.736 87.6566 10.046 89.2166 10.046C92.5766 10.046 93.4166 12.446 93.4166 14.546V15.116C91.8266 14.606 90.0566 14.246 88.3766 14.246C85.0466 14.246 82.2866 16.316 82.2866 19.406C82.2866 22.466 84.6866 24.356 87.9566 24.356C89.9966 24.356 92.3066 23.396 93.4166 21.566V23.996H95.6666V14.546C95.6666 10.796 93.5966 8.12597 89.3666 8.12597ZM88.3466 22.376C86.1566 22.376 84.4766 21.236 84.4766 19.316C84.4766 17.456 86.4266 16.136 88.7366 16.136C90.4166 16.136 92.0066 16.376 93.4166 16.766V19.136C92.8166 21.326 90.3866 22.376 88.3466 22.376ZM105.754 24.356C108.964 24.356 111.424 22.526 111.424 19.676C111.424 16.736 108.844 15.896 106.354 15.116C103.474 14.186 102.334 13.766 102.334 12.416C102.334 10.916 103.774 10.136 105.514 10.136C106.894 10.136 108.424 10.616 109.984 11.606L111.064 9.86597C109.414 8.78597 107.434 8.12597 105.514 8.12597C102.424 8.12597 100.084 9.86597 100.084 12.686C100.084 14.906 101.524 16.016 105.274 17.096C107.374 17.696 109.174 18.236 109.174 19.916C109.174 21.386 107.794 22.346 105.754 22.346C104.044 22.346 102.274 21.686 100.504 20.396L99.3338 22.046C101.194 23.546 103.594 24.356 105.754 24.356ZM122.527 8.12597C120.337 8.12597 118.327 9.32597 117.427 10.976V3.02597H115.177V23.996H117.427V14.126C117.427 11.966 119.617 10.136 122.227 10.136C124.507 10.136 126.097 11.906 126.097 14.426V23.996H128.347V14.126C128.347 10.616 125.947 8.12597 122.527 8.12597ZM140.101 24.356C142.261 24.356 144.241 23.456 145.711 21.986L144.151 20.456C143.101 21.626 141.661 22.346 140.101 22.346C137.011 22.346 134.431 19.556 134.431 16.226C134.431 12.926 137.011 10.136 140.101 10.136C141.631 10.136 143.041 10.826 144.061 11.936L145.621 10.406C144.151 8.99597 142.201 8.12597 140.101 8.12597C135.751 8.12597 132.061 11.816 132.061 16.226C132.061 20.636 135.751 24.356 140.101 24.356ZM156.038 24.356C160.388 24.356 164.048 20.636 164.048 16.226C164.048 11.816 160.388 8.12597 156.038 8.12597C151.688 8.12597 147.998 11.816 147.998 16.226C147.998 20.636 151.688 24.356 156.038 24.356ZM156.038 22.346C152.948 22.346 150.368 19.556 150.368 16.226C150.368 12.926 152.948 10.136 156.038 10.136C159.098 10.136 161.678 12.926 161.678 16.226C161.678 19.556 159.098 22.346 156.038 22.346ZM184.534 8.12597C182.194 8.12597 180.154 9.41597 179.524 11.426C178.684 9.41597 176.854 8.12597 174.514 8.12597C172.474 8.12597 170.794 9.14597 170.014 10.766V8.48597H167.764V23.996H170.014V14.126C170.014 11.786 171.754 10.136 174.214 10.136C176.314 10.136 177.784 11.906 177.784 14.426V23.996H180.034V14.126C180.034 11.786 181.774 10.136 184.234 10.136C186.334 10.136 187.804 11.906 187.804 14.426V23.996H190.054V14.126C190.054 10.616 187.774 8.12597 184.534 8.12597Z" fill="#06152B"/>
</svg>
