<svg width="42" height="40" viewBox="0 0 42 40" fill="none" xmlns="http://www.w3.org/2000/svg">
<path d="M20.753 40C19.5825 40.007 18.414 39.9036 17.263 39.691C14.8112 39.2774 12.4593 38.4059 10.33 37.122C8.22563 35.7957 6.33391 34.1589 4.71899 32.267C2.8819 30.1607 1.58037 27.642 0.924987 24.925C0.294505 22.1876 0.20719 19.3531 0.667987 16.582C1.19248 13.2562 2.58743 10.1284 4.7113 7.51597C6.83516 4.90351 9.61234 2.89939 12.761 1.70701C14.9785 0.804408 17.3208 0.245961 19.707 0.0510043C20.218 0.0140043 20.732 -0.00499542 21.234 -0.00499542C23.813 -0.0146558 26.3662 0.507904 28.734 1.53C29.505 1.865 30.234 2.249 31.01 2.655L31.626 2.977C31.6842 3.00742 31.7353 3.04991 31.7759 3.10164C31.8164 3.15338 31.8454 3.21316 31.861 3.27701C31.8764 3.33828 31.8787 3.40214 31.8677 3.46437C31.8567 3.5266 31.8326 3.58578 31.797 3.63801C30.03 6.21701 30.041 9.10401 30.05 11.896C30.05 12.1087 30.05 12.321 30.05 12.533L29.725 12.687L29.712 12.693L29.142 12.964H29.137L29.117 12.949C27.6636 11.1191 25.6808 9.78237 23.4393 9.12134C21.1979 8.46031 18.8071 8.50719 16.5933 9.25559C14.3795 10.004 12.4506 11.4174 11.0701 13.3029C9.6895 15.1884 8.92453 17.454 8.8796 19.7905C8.83466 22.1269 9.51196 24.4203 10.819 26.3575C12.126 28.2947 13.9991 29.7812 16.1825 30.6142C18.3659 31.4471 20.7532 31.5859 23.0184 31.0116C25.2836 30.4372 27.3163 29.1777 28.839 27.405C29.8507 26.2809 30.6173 24.9586 31.09 23.522C31.745 21.4561 31.9866 19.2813 31.801 17.122C31.701 15.216 31.761 13.27 31.815 11.389C31.829 10.889 31.844 10.375 31.856 9.866C31.8423 8.4524 32.1397 7.05309 32.7273 5.76732C33.3149 4.48154 34.1782 3.34081 35.256 2.42601C36.7022 1.15898 38.5303 0.411407 40.45 0.302004C40.519 0.296004 40.581 0.293005 40.637 0.293005C40.7146 0.28497 40.7929 0.292603 40.8675 0.315451C40.942 0.338298 41.0112 0.375892 41.071 0.426004C41.2008 0.599977 41.2575 0.817809 41.229 1.03301C41.217 4.97901 41.169 8.99101 41.123 12.871V12.876C41.084 16.164 41.044 19.564 41.023 22.911C40.9027 24.3514 40.6537 25.7781 40.279 27.174C39.4391 29.6383 38.0466 31.8778 36.208 33.721C34.8339 35.0742 33.2722 36.2227 31.571 37.131C28.852 38.7267 25.8074 39.687 22.665 39.94C22.006 39.979 21.362 40 20.753 40Z" fill="#737cde"/>
</svg>
